<svg xmlns="http://www.w3.org/2000/svg" viewBox="0 0 12 12"><rect x="1" y="2.5" width="0.92" height="0.92" rx="0.2" fill="#e8490f"/><rect x="2" y="2.5" width="0.92" height="0.92" rx="0.2" fill="#e8490f"/><rect x="3" y="2.5" width="0.92" height="0.92" rx="0.2" fill="#e8490f"/><rect x="8" y="2.5" width="0.92" height="0.92" rx="0.2" fill="#e8490f"/><rect x="9" y="2.5" width="0.92" height="0.92" rx="0.2" fill="#e8490f"/><rect x="10" y="2.5" width="0.92" height="0.92" rx="0.2" fill="#e8490f"/><rect x="0" y="3.5" width="0.92" height="0.92" rx="0.2" fill="#e8490f"/><rect x="4" y="3.5" width="0.92" height="0.92" rx="0.2" fill="#e8490f"/><rect x="7" y="3.5" width="0.92" height="0.92" rx="0.2" fill="#e8490f"/><rect x="11" y="3.5" width="0.92" height="0.92" rx="0.2" fill="#e8490f"/><rect x="0" y="4.5" width="0.92" height="0.92" rx="0.2" fill="#e8490f"/><rect x="4" y="4.5" width="0.92" height="0.92" rx="0.2" fill="#e8490f"/><rect x="7" y="4.5" width="0.92" height="0.92" rx="0.2" fill="#e8490f"/><rect x="11" y="4.5" width="0.92" height="0.92" rx="0.2" fill="#e8490f"/><rect x="0" y="5.5" width="0.92" height="0.92" rx="0.2" fill="#e8490f"/><rect x="4" y="5.5" width="0.92" height="0.92" rx="0.2" fill="#e8490f"/><rect x="7" y="5.5" width="0.92" height="0.92" rx="0.2" fill="#e8490f"/><rect x="8" y="5.5" width="0.92" height="0.92" rx="0.2" fill="#e8490f"/><rect x="9" y="5.5" width="0.92" height="0.92" rx="0.2" fill="#e8490f"/><rect x="10" y="5.5" width="0.92" height="0.92" rx="0.2" fill="#e8490f"/><rect x="11" y="5.5" width="0.92" height="0.92" rx="0.2" fill="#e8490f"/><rect x="0" y="6.5" width="0.92" height="0.92" rx="0.2" fill="#e8490f"/><rect x="4" y="6.5" width="0.92" height="0.92" rx="0.2" fill="#e8490f"/><rect x="7" y="6.5" width="0.92" height="0.92" rx="0.2" fill="#e8490f"/><rect x="11" y="6.5" width="0.92" height="0.92" rx="0.2" fill="#e8490f"/><rect x="0" y="7.5" width="0.92" height="0.92" rx="0.2" fill="#e8490f"/><rect x="4" y="7.5" width="0.92" height="0.92" rx="0.2" fill="#e8490f"/><rect x="7" y="7.5" width="0.92" height="0.92" rx="0.2" fill="#e8490f"/><rect x="11" y="7.5" width="0.92" height="0.92" rx="0.2" fill="#e8490f"/><rect x="1" y="8.5" width="0.92" height="0.92" rx="0.2" fill="#e8490f"/><rect x="2" y="8.5" width="0.92" height="0.92" rx="0.2" fill="#e8490f"/><rect x="3" y="8.5" width="0.92" height="0.92" rx="0.2" fill="#e8490f"/><rect x="7" y="8.5" width="0.92" height="0.92" rx="0.2" fill="#e8490f"/><rect x="11" y="8.5" width="0.92" height="0.92" rx="0.2" fill="#e8490f"/></svg>